<?xml version="1.0" encoding="UTF-8" standalone="no"?>
<!-- Generated by IcoMoon.io -->

<svg
   xmlns:dc="http://purl.org/dc/elements/1.1/"
   xmlns:cc="http://creativecommons.org/ns#"
   xmlns:rdf="http://www.w3.org/1999/02/22-rdf-syntax-ns#"
   xmlns:svg="http://www.w3.org/2000/svg"
   xmlns="http://www.w3.org/2000/svg"
   xmlns:sodipodi="http://sodipodi.sourceforge.net/DTD/sodipodi-0.dtd"
   xmlns:inkscape="http://www.inkscape.org/namespaces/inkscape"
   version="1.1"
   width="512"
   height="512"
   viewBox="0 0 512 512"
   id="svg2"
   inkscape:version="0.48.0 r9654"
   sodipodi:docname="lock.svg">
  <metadata
     id="metadata12">
    <rdf:RDF>
      <cc:Work
         rdf:about="">
        <dc:format>image/svg+xml</dc:format>
        <dc:type
           rdf:resource="http://purl.org/dc/dcmitype/StillImage" />
      </cc:Work>
    </rdf:RDF>
  </metadata>
  <defs
     id="defs10" />
  <sodipodi:namedview
     pagecolor="#ffffff"
     bordercolor="#666666"
     borderopacity="1"
     objecttolerance="10"
     gridtolerance="10"
     guidetolerance="10"
     inkscape:pageopacity="0"
     inkscape:pageshadow="2"
     inkscape:window-width="1280"
     inkscape:window-height="972"
     id="namedview8"
     showgrid="false"
     inkscape:zoom="0.50976562"
     inkscape:cx="-50.022989"
     inkscape:cy="256"
     inkscape:window-x="-8"
     inkscape:window-y="-8"
     inkscape:window-maximized="1"
     inkscape:current-layer="svg2" />
  <g
     id="g4" />
  <path
     d="M345.508 238.099h-17.901v-53.704c0-39.548-32.059-71.606-71.606-71.606s-71.606 32.059-71.606 71.606v53.704h-17.901c-9.846 0-17.901 8.055-17.901 17.901v125.312c0 9.846 8.055 17.901 17.901 17.901h179.016c9.846 0 17.901-8.056 17.901-17.901v-125.312c0-9.846-8.056-17.901-17.901-17.901zM256 345.508c-9.887 0-17.901-8.014-17.901-17.901s8.014-17.901 17.901-17.901 17.901 8.014 17.901 17.901-8.014 17.901-17.901 17.901zM291.803 238.099h-71.606v-53.704c0-19.742 16.061-35.803 35.803-35.803s35.803 16.061 35.803 35.803v53.704z"
     id="path6"
     style="fill:#009dba;fill-opacity:1" />
</svg>
