<?xml version="1.0" encoding="UTF-8" standalone="no"?>
<!-- Generated by IcoMoon.io -->

<svg
   xmlns:dc="http://purl.org/dc/elements/1.1/"
   xmlns:cc="http://creativecommons.org/ns#"
   xmlns:rdf="http://www.w3.org/1999/02/22-rdf-syntax-ns#"
   xmlns:svg="http://www.w3.org/2000/svg"
   xmlns="http://www.w3.org/2000/svg"
   xmlns:sodipodi="http://sodipodi.sourceforge.net/DTD/sodipodi-0.dtd"
   xmlns:inkscape="http://www.inkscape.org/namespaces/inkscape"
   version="1.1"
   width="512"
   height="512"
   viewBox="0 0 512 512"
   id="svg2"
   inkscape:version="0.48.0 r9654"
   sodipodi:docname="male.svg">
  <metadata
     id="metadata12">
    <rdf:RDF>
      <cc:Work
         rdf:about="">
        <dc:format>image/svg+xml</dc:format>
        <dc:type
           rdf:resource="http://purl.org/dc/dcmitype/StillImage" />
        <dc:title></dc:title>
      </cc:Work>
    </rdf:RDF>
  </metadata>
  <defs
     id="defs10" />
  <sodipodi:namedview
     pagecolor="#ffffff"
     bordercolor="#666666"
     borderopacity="1"
     objecttolerance="10"
     gridtolerance="10"
     guidetolerance="10"
     inkscape:pageopacity="0"
     inkscape:pageshadow="2"
     inkscape:window-width="1280"
     inkscape:window-height="972"
     id="namedview8"
     showgrid="false"
     inkscape:zoom="0.36045873"
     inkscape:cx="-74.484453"
     inkscape:cy="493.502"
     inkscape:window-x="-8"
     inkscape:window-y="-8"
     inkscape:window-maximized="1"
     inkscape:current-layer="svg2" />
  <g
     id="g4" />
  <path
     d="m 296.81226,58.022681 c -89.07255,0 -161.28,72.207459 -161.28,161.280009 0,89.07255 72.20745,161.28 161.28,161.28 89.07255,0 161.28,-72.20745 161.28,-161.28 0,-89.07255 -72.20745,-161.280009 -161.28,-161.280009 z m 0,282.240009 c -66.80457,0 -120.96,-54.15543 -120.96,-120.96 0,-66.80457 54.15543,-120.96 120.96,-120.96 66.80457,0 120.96,54.15543 120.96,120.96 0,66.80457 -54.15543,120.96 -120.96,120.96 z"
     id="path6"
     inkscape:connector-curvature="0"
     style="fill:#ff8080;fill-opacity:1" />
  <path
     d="m 221.7048,424.08133 c -8e-4,-8e-4 -0.001,-10e-4 -0.002,-0.002 l -49.70304,-49.70401 49.70304,-49.704 c 8e-4,-8e-4 0.001,-8e-4 0.002,-0.002 0.53504,-0.53536 0.92192,-1.16064 1.16992,-1.82656 0.67936,-1.82016 0.29184,-3.94912 -1.17184,-5.4128 L 198.22352,293.9506 c -1.46368,-1.46336 -3.592,-1.85056 -5.41248,-1.1712 -0.6656,0.248 -1.2912,0.63488 -1.82688,1.1696 0,6.4e-4 -8e-4,9.6e-4 -0.001,0.002 l -49.70376,49.70432 -49.703684,-49.704 c -8e-4,-6.4e-4 -8e-4,-9.6e-4 -0.002,-0.002 -0.53536,-0.53472 -1.16064,-0.9216 -1.82624,-1.1696 -1.8208,-0.67968 -3.94912,-0.29216 -5.4128,1.1712 L 60.854997,317.4306 c -1.46368,1.46368 -1.85088,3.59232 -1.17152,5.41248 0.24832,0.6656 0.6352,1.29152 1.16992,1.82656 6.4e-4,3.2e-4 9.6e-4,8e-4 0.002,0.002 l 49.704003,49.70368 -49.704003,49.70433 c -3.2e-4,8e-4 -9.6e-4,8e-4 -0.001,0.002 -0.53472,0.53536 -0.9216,1.16064 -1.17024,1.82624 -0.67968,1.82016 -0.29216,3.94912 1.17152,5.4128 l 23.479679,23.47936 c 1.464,1.46368 3.59232,1.85088 5.4128,1.17152 0.6656,-0.24832 1.2912,-0.6352 1.82656,-1.16992 3.2e-4,-8e-4 8e-4,-8e-4 0.002,-0.002 l 49.703684,-49.704 49.70368,49.704 c 8e-4,3.2e-4 0.001,8e-4 0.002,0.001 0.53568,0.53504 1.16064,0.92192 1.82624,1.17024 1.82048,0.67936 3.94944,0.29216 5.41248,-1.17152 l 23.47936,-23.47968 c 1.46368,-1.46368 1.8512,-3.59264 1.17184,-5.4128 -0.24832,-0.6656 -0.6352,-1.29088 -1.17024,-1.82624 z"
     id="path6-1"
     inkscape:connector-curvature="0"
     style="fill:#ff8080;fill-opacity:1" />
</svg>
