<?xml version="1.0" encoding="UTF-8" standalone="no"?>
<!-- Generated by IcoMoon.io -->

<svg
   xmlns:dc="http://purl.org/dc/elements/1.1/"
   xmlns:cc="http://creativecommons.org/ns#"
   xmlns:rdf="http://www.w3.org/1999/02/22-rdf-syntax-ns#"
   xmlns:svg="http://www.w3.org/2000/svg"
   xmlns="http://www.w3.org/2000/svg"
   xmlns:sodipodi="http://sodipodi.sourceforge.net/DTD/sodipodi-0.dtd"
   xmlns:inkscape="http://www.inkscape.org/namespaces/inkscape"
   version="1.1"
   width="512"
   height="512"
   viewBox="0 0 512 512"
   id="svg2"
   inkscape:version="0.48.0 r9654"
   sodipodi:docname="radio-unchecked.svg">
  <metadata
     id="metadata12">
    <rdf:RDF>
      <cc:Work
         rdf:about="">
        <dc:format>image/svg+xml</dc:format>
        <dc:type
           rdf:resource="http://purl.org/dc/dcmitype/StillImage" />
      </cc:Work>
    </rdf:RDF>
  </metadata>
  <defs
     id="defs10" />
  <sodipodi:namedview
     pagecolor="#ffffff"
     bordercolor="#666666"
     borderopacity="1"
     objecttolerance="10"
     gridtolerance="10"
     guidetolerance="10"
     inkscape:pageopacity="0"
     inkscape:pageshadow="2"
     inkscape:window-width="1280"
     inkscape:window-height="972"
     id="namedview8"
     showgrid="false"
     inkscape:zoom="0.25488281"
     inkscape:cx="-431.53748"
     inkscape:cy="52.654372"
     inkscape:window-x="-8"
     inkscape:window-y="-8"
     inkscape:window-maximized="1"
     inkscape:current-layer="svg2" />
  <g
     id="g4" />
  <path
     d="m 226,134.72 c -89.07255,0 -161.28,72.20745 -161.28,161.28 0,89.07255 72.20745,161.28 161.28,161.28 89.07255,0 161.28,-72.20745 161.28,-161.28 0,-89.07255 -72.20745,-161.28 -161.28,-161.28 z m 0,282.24 c -66.80457,0 -120.96,-54.15543 -120.96,-120.96 0,-66.80457 54.15543,-120.96 120.96,-120.96 66.80457,0 120.96,54.15543 120.96,120.96 0,66.80457 -54.15543,120.96 -120.96,120.96 z"
     id="path6"
     inkscape:connector-curvature="0"
     style="fill:#009dba;fill-opacity:1" />
  <path
     d="m 431.36798,69.6141 c -0.003,0 -0.008,0 -0.0112,0 l -107.5144,0 c -9.89688,0 -17.92,8.02312 -17.92,17.92 0,9.89688 8.02312,17.92 17.92,17.92 l 64.25776,0 -79.25282,77.86569 c -6.99831,6.99776 -1.79661,18.17109 5.2017,25.16885 3.49888,3.49944 10.85954,-3.59402 15.44538,-3.59402 4.58584,0 -0.88439,10.38787 2.61449,6.88843 l 81.33349,-80.98671 0,64.25776 c 0,9.89688 8.02312,17.92 17.92,17.92 9.89688,0 17.92,-8.02312 17.92,-17.92 l 0,-125.44 z"
     id="path6-1"
     inkscape:connector-curvature="0"
     sodipodi:nodetypes="ssssscccsccssscs"
     style="fill:#009dba;fill-opacity:1" />
</svg>
